<svg width="24" height="24" viewBox="0 0 24 24" fill="none" xmlns="http://www.w3.org/2000/svg">
  <path fill-rule="evenodd" clip-rule="evenodd"
    d="M3 14C3 13.7348 3.10536 13.4804 3.29289 13.2929C3.48043 13.1054 3.73478 13 4 13H16C16.7956 13 17.5587 12.6839 18.1213 12.1213C18.6839 11.5587 19 10.7956 19 10V6C19 5.73478 19.1054 5.48043 19.2929 5.29289C19.4804 5.10536 19.7348 5 20 5C20.2652 5 20.5196 5.10536 20.7071 5.29289C20.8946 5.48043 21 5.73478 21 6V10C21 11.3261 20.4732 12.5979 19.5355 13.5355C18.5979 14.4732 17.3261 15 16 15H4C3.73478 15 3.48043 14.8946 3.29289 14.7071C3.10536 14.5196 3 14.2652 3 14Z"
    fill="white" />
  <path fill-rule="evenodd" clip-rule="evenodd"
    d="M3.29303 14.7069C3.10556 14.5194 3.00024 14.2651 3.00024 13.9999C3.00024 13.7348 3.10556 13.4804 3.29303 13.2929L7.29303 9.29292C7.48163 9.11076 7.73423 9.00997 7.99643 9.01224C8.25863 9.01452 8.50944 9.11969 8.69485 9.3051C8.88026 9.49051 8.98543 9.74132 8.9877 10.0035C8.98998 10.2657 8.88919 10.5183 8.70703 10.7069L5.41403 13.9999L8.70703 17.2929C8.80254 17.3852 8.87872 17.4955 8.93113 17.6175C8.98354 17.7395 9.01113 17.8707 9.01228 18.0035C9.01344 18.1363 8.98813 18.268 8.93785 18.3909C8.88757 18.5138 8.81332 18.6254 8.71943 18.7193C8.62553 18.8132 8.51388 18.8875 8.39098 18.9377C8.26809 18.988 8.13641 19.0133 8.00363 19.0122C7.87085 19.011 7.73963 18.9834 7.61763 18.931C7.49562 18.8786 7.38528 18.8024 7.29303 18.7069L3.29303 14.7069Z"
    fill="white" />
</svg>