<svg width="90" height="75" viewBox="0 0 90 75" fill="none" xmlns="http://www.w3.org/2000/svg">
<path d="M73.3707 0.630224C78.7968 0.537767 84.0631 0.442976 89.6029 0.343268C87.7494 13.9249 85.7933 27.2433 83.8941 40.7501C78.0754 40.8069 72.3815 40.8624 66.5696 40.919C66.2901 46.6399 66.0181 52.2079 65.7358 57.9847C66.8219 58.0378 67.8689 58.0313 68.9019 58.1488C75.2949 58.8761 76.0672 64.4962 73.7333 68.3473C72.2897 70.7293 70.0882 72.0548 67.3664 72.4689C59.6023 73.6503 51.7941 74.2264 43.9364 74.0592C42.8802 74.0367 41.823 74.0643 40.7668 74.0435C36.5947 73.9614 33.164 71.3371 32.2868 67.5689C31.5421 64.37 32.7861 61.7751 35.8299 60.5478C37.2548 59.9732 38.7983 59.6917 40.5239 59.2117C39.4884 53.3267 38.4362 47.3467 37.3513 41.1814C29.6524 41.234 22.0501 41.2859 14.2725 41.339C9.6744 28.2417 5.08364 15.1652 0.421435 1.8853C2.05774 1.82269 3.52368 1.74032 4.99069 1.71475C15.0538 1.5395 25.1169 1.36862 35.1803 1.21139C42.853 1.0915 50.5261 0.999497 58.1988 0.884114C63.2031 0.808867 68.207 0.713985 73.3707 0.630224ZM40.4353 47.2522C41.2535 51.8726 42.0716 56.493 42.9081 61.2168C41.8461 61.3209 41.0112 61.3378 40.2042 61.4968C38.9577 61.7424 37.6707 61.9402 36.508 62.4183C34.4202 63.2768 33.612 65.0124 34.2594 67.17C34.5378 68.0981 35.0426 69.0221 35.6589 69.7722C36.9713 71.3696 38.7879 72.0234 40.8325 72.0278C44.3349 72.0353 47.8382 72.0679 51.3395 72.0041C56.6829 71.9068 61.9837 71.2726 67.253 70.4397C70.0636 69.9955 71.9892 68.3269 72.744 65.5078C73.4258 62.9623 72.2479 60.9255 69.6699 60.3284C68.5461 60.0681 67.3602 60.0467 66.199 59.9869C65.381 59.9447 64.5569 60.0205 63.594 60.0477C63.6807 53.6002 64.3302 47.3275 64.398 40.9222C55.9768 40.9974 47.7613 41.0709 39.4077 41.1456C39.7534 43.1716 40.0779 45.0733 40.4353 47.2522Z" fill="#434345"/>
</svg>
